<svg width="37" height="11" viewBox="0 0 37 11" fill="none" xmlns="http://www.w3.org/2000/svg">
<path d="M0 0.491211H36.8315L31.9206 5.24247L36.8315 9.33077H0V0.491211Z" fill="#003289"/>
<path d="M3.52622 6.50879V3.12987H2.28917V2.60318H5.28996V3.12987H4.10963V6.50879H3.52622ZM5.64805 6.50879V3.71598H6.20175V4.28859C6.24856 4.15174 6.31339 4.0374 6.39622 3.94556C6.48085 3.85193 6.57898 3.7817 6.69062 3.73489C6.80227 3.68627 6.92021 3.66196 7.04445 3.66196C7.08227 3.66196 7.11828 3.66466 7.15249 3.67006C7.1867 3.67366 7.21371 3.68087 7.23352 3.69167V4.24807C7.21011 4.23727 7.1795 4.23006 7.14169 4.22646C7.10567 4.22286 7.07416 4.22016 7.04715 4.21836C6.92471 4.20936 6.81307 4.21566 6.71223 4.23727C6.6114 4.25888 6.52406 4.29489 6.45024 4.34531C6.37821 4.39572 6.32239 4.46145 6.28278 4.54248C6.24496 4.62351 6.22606 4.71894 6.22606 4.82878V6.50879H5.64805ZM8.96822 6.56281C8.70353 6.56281 8.47034 6.50609 8.26867 6.39265C8.067 6.27741 7.90944 6.11355 7.796 5.90107C7.68436 5.68859 7.62854 5.4356 7.62854 5.14209C7.62854 4.85219 7.67986 4.5965 7.78249 4.37502C7.88513 4.15174 8.03369 3.97707 8.22816 3.85103C8.42263 3.72498 8.65671 3.66196 8.93041 3.66196C9.19871 3.66196 9.42559 3.71958 9.61106 3.83482C9.79652 3.95006 9.93697 4.11212 10.0324 4.321C10.1278 4.52807 10.1756 4.77296 10.1756 5.05566V5.24743H8.20925C8.20745 5.41489 8.23446 5.56525 8.29028 5.6985C8.3461 5.82994 8.42893 5.93438 8.53877 6.01181C8.65041 6.08744 8.78906 6.12525 8.95472 6.12525C9.12218 6.12525 9.26623 6.08744 9.38687 6.01181C9.50932 5.93618 9.58945 5.82364 9.62726 5.67419H10.1621C10.1296 5.86506 10.0531 6.02711 9.93247 6.16036C9.81183 6.29361 9.66688 6.39445 9.49762 6.46287C9.32835 6.5295 9.15189 6.56281 8.96822 6.56281ZM8.20925 4.872H9.62456C9.62456 4.72614 9.59935 4.5938 9.54893 4.47495C9.49852 4.35431 9.42109 4.25978 9.31665 4.19135C9.21401 4.12113 9.08437 4.08601 8.92771 4.08601C8.76745 4.08601 8.6342 4.12473 8.52796 4.20215C8.42173 4.27958 8.3416 4.37862 8.28758 4.49926C8.23536 4.61991 8.20925 4.74415 8.20925 4.872ZM10.8337 6.50879V3.71598H11.3982V4.11842C11.4432 4.0428 11.5036 3.97167 11.5792 3.90505C11.6566 3.83842 11.7511 3.7844 11.8628 3.74299C11.9762 3.70157 12.1068 3.68087 12.2544 3.68087C12.4291 3.68087 12.5902 3.71598 12.7379 3.7862C12.8874 3.85463 13.0071 3.96267 13.0971 4.11032C13.1872 4.25617 13.2322 4.44524 13.2322 4.67753V6.50879H12.6542V4.73965C12.6542 4.53978 12.6002 4.39122 12.4921 4.29399C12.3859 4.19675 12.2481 4.14814 12.0789 4.14814C11.9654 4.14814 11.8574 4.16704 11.7547 4.20486C11.6521 4.24267 11.5693 4.30029 11.5063 4.37772C11.4432 4.45335 11.4117 4.54878 11.4117 4.66402V6.50879H10.8337ZM15.0016 6.56281C14.6361 6.56281 14.3471 6.43766 14.1346 6.18737C13.9239 5.93528 13.8186 5.57245 13.8186 5.09888C13.8186 4.80897 13.8609 4.55688 13.9455 4.34261C14.032 4.12653 14.1589 3.95907 14.3264 3.84022C14.4938 3.72138 14.7027 3.66196 14.953 3.66196C15.0772 3.66196 15.1889 3.67726 15.2879 3.70788C15.387 3.73849 15.4734 3.7781 15.5472 3.82672C15.621 3.87534 15.6832 3.92756 15.7336 3.98338C15.784 4.0392 15.8218 4.09141 15.847 4.14003V2.49514H16.4304V6.50879H15.9956L15.9308 5.93618C15.9109 5.9974 15.8803 6.06403 15.8389 6.13605C15.7993 6.20808 15.7435 6.27651 15.6715 6.34133C15.6012 6.40615 15.5112 6.45927 15.4014 6.50069C15.2915 6.5421 15.1583 6.56281 15.0016 6.56281ZM15.1124 6.12795C15.3716 6.12795 15.5589 6.04692 15.6742 5.88486C15.7894 5.721 15.847 5.45271 15.847 5.07997C15.8452 4.8693 15.8191 4.69103 15.7687 4.54518C15.7201 4.39933 15.6426 4.28949 15.5364 4.21566C15.432 4.14003 15.2942 4.10222 15.1232 4.10222C14.9089 4.10222 14.7333 4.17965 14.5965 4.3345C14.4614 4.48756 14.3939 4.73605 14.3939 5.07997C14.3939 5.41849 14.4551 5.67779 14.5776 5.85785C14.7018 6.03792 14.8801 6.12795 15.1124 6.12795ZM17.2568 6.50879V3.71598H17.8132V6.50879H17.2568ZM17.2433 3.17578V2.60588H17.824V3.17578H17.2433ZM18.6412 6.50879V3.71598H19.2057V4.11842C19.2507 4.0428 19.3111 3.97167 19.3867 3.90505C19.4641 3.83842 19.5587 3.7844 19.6703 3.74299C19.7837 3.70157 19.9143 3.68087 20.0619 3.68087C20.2366 3.68087 20.3978 3.71598 20.5454 3.7862C20.6949 3.85463 20.8146 3.96267 20.9046 4.11032C20.9947 4.25617 21.0397 4.44524 21.0397 4.67753V6.50879H20.4617V4.73965C20.4617 4.53978 20.4077 4.39122 20.2996 4.29399C20.1934 4.19675 20.0556 4.14814 19.8864 4.14814C19.7729 4.14814 19.6649 4.16704 19.5623 4.20486C19.4596 4.24267 19.3768 4.30029 19.3138 4.37772C19.2507 4.45335 19.2192 4.54878 19.2192 4.66402V6.50879H18.6412ZM22.9928 7.43252C22.539 7.43252 22.1879 7.3686 21.9394 7.24075C21.6909 7.11471 21.5667 6.93824 21.5667 6.71136C21.5667 6.61233 21.5901 6.5286 21.6369 6.46017C21.6855 6.38995 21.7422 6.33233 21.8071 6.28731C21.8737 6.24229 21.9349 6.20718 21.9907 6.18197C22.0466 6.15496 22.0826 6.13605 22.0988 6.12525C22.0682 6.10724 22.0285 6.08474 21.9799 6.05773C21.9331 6.02892 21.8908 5.9911 21.853 5.94428C21.8152 5.89567 21.7963 5.83264 21.7963 5.75522C21.7963 5.66518 21.8386 5.58235 21.9232 5.50673C22.0096 5.4293 22.1393 5.37258 22.3121 5.33657C22.1429 5.25374 22.0114 5.14209 21.9178 5.00164C21.8242 4.86119 21.7774 4.71174 21.7774 4.55328C21.7774 4.37142 21.8287 4.21476 21.9313 4.08331C22.0339 3.95006 22.178 3.84833 22.3635 3.7781C22.5507 3.70788 22.7704 3.67276 23.0225 3.67276C23.208 3.67276 23.3619 3.69347 23.4844 3.73489C23.6086 3.7763 23.723 3.83392 23.8274 3.90775C23.8616 3.89514 23.9102 3.87624 23.9732 3.85103C24.0381 3.82402 24.1083 3.79521 24.1839 3.7646C24.2596 3.73399 24.3316 3.70427 24.4 3.67546C24.4702 3.64665 24.5269 3.62325 24.5702 3.60524L24.5675 4.10762L24.0813 4.19675C24.1065 4.25077 24.1263 4.31019 24.1407 4.37502C24.1569 4.43984 24.165 4.49926 24.165 4.55328C24.165 4.71534 24.1209 4.86479 24.0327 5.00164C23.9444 5.13669 23.8121 5.24473 23.6356 5.32576C23.4592 5.40679 23.2386 5.44731 22.9739 5.44731C22.9487 5.44731 22.9163 5.44731 22.8767 5.44731C22.837 5.4455 22.8037 5.4428 22.7767 5.4392C22.6093 5.4446 22.494 5.46441 22.431 5.49862C22.368 5.53104 22.3365 5.56705 22.3365 5.60666C22.3365 5.65708 22.377 5.69129 22.458 5.7093C22.539 5.72731 22.6723 5.74261 22.8577 5.75522C22.9244 5.76062 23.009 5.76602 23.1116 5.77142C23.2161 5.77682 23.3313 5.78403 23.4574 5.79303C23.7635 5.81104 23.9967 5.88756 24.1569 6.02261C24.319 6.15766 24.4 6.33683 24.4 6.56011C24.4 6.8158 24.2839 7.02468 24.0516 7.18673C23.8193 7.35059 23.4664 7.43252 22.9928 7.43252ZM23.0927 7.0787C23.3394 7.0787 23.5258 7.04268 23.6518 6.97066C23.7779 6.90043 23.8409 6.79509 23.8409 6.65464C23.8409 6.5502 23.8004 6.46467 23.7194 6.39805C23.6383 6.33142 23.5168 6.29271 23.3547 6.28191L22.6093 6.23329C22.5354 6.22969 22.4616 6.24589 22.3878 6.28191C22.3157 6.31792 22.2563 6.36834 22.2095 6.43316C22.1627 6.49618 22.1393 6.56641 22.1393 6.64384C22.1393 6.78429 22.2167 6.89143 22.3716 6.96525C22.5264 7.04088 22.7668 7.0787 23.0927 7.0787ZM22.9901 5.09348C23.1774 5.09348 23.3277 5.04846 23.4412 4.95843C23.5564 4.8666 23.614 4.73515 23.614 4.56409C23.614 4.38762 23.5564 4.25167 23.4412 4.15624C23.3277 4.059 23.1774 4.01039 22.9901 4.01039C22.801 4.01039 22.648 4.059 22.5309 4.15624C22.4157 4.25347 22.3581 4.38942 22.3581 4.56409C22.3581 4.72975 22.413 4.85939 22.5228 4.95303C22.6345 5.04666 22.7902 5.09348 22.9901 5.09348Z" fill="white"/>
</svg>
